<svg class="canvas" viewBox="0 0 1920 1080" preserveAspectRatio="xMaxYMid slice" xmlns="http://www.w3.org/2000/svg" version="1.1" xmlns:xlink="http://www.w3.org/1999/xlink" xmlns:svgjs="http://svgjs.dev/svgjs"><rect width="1920" height="1080" fill="hsl(144, 65%, 15%)"></rect><defs><linearGradient x1="0.5" y1="0" x2="0" y2="1" id="SvgjsLinearGradient1084"><stop stop-color="#288a63" offset="0"></stop><stop stop-color="#060b14" offset="0.1"></stop></linearGradient><linearGradient x1="0.5" y1="0" x2="0" y2="1" id="SvgjsLinearGradient1085"><stop stop-color="#288a63" offset="0"></stop><stop stop-color="#060b14" offset="0.22857142857142856"></stop></linearGradient><linearGradient x1="0.5" y1="0" x2="0" y2="1" id="SvgjsLinearGradient1086"><stop stop-color="#288a4f" offset="0"></stop><stop stop-color="#060e14" offset="0.3571428571428571"></stop></linearGradient><linearGradient x1="0.5" y1="0" x2="0" y2="1" id="SvgjsLinearGradient1087"><stop stop-color="#c0f2de" offset="0"></stop><stop stop-color="#427dd7" offset="0.48571428571428565"></stop></linearGradient><linearGradient x1="0.5" y1="0" x2="0" y2="1" id="SvgjsLinearGradient1088"><stop stop-color="#c0f2ca" offset="0"></stop><stop stop-color="#42b9d7" offset="0.6142857142857142"></stop></linearGradient><linearGradient x1="0.5" y1="0" x2="0" y2="1" id="SvgjsLinearGradient1089"><stop stop-color="#c0f2ca" offset="0"></stop><stop stop-color="#42b9d7" offset="0.7428571428571429"></stop></linearGradient><linearGradient x1="0.5" y1="0" x2="0" y2="1" id="SvgjsLinearGradient1090"><stop stop-color="#c0f2e8" offset="0"></stop><stop stop-color="#425fd7" offset="0.8714285714285713"></stop></linearGradient></defs><path d="M0,-507.31327293455325C80.73013911256233,-490.6153944681427,318.473166493667,-459.1713242889884,484.38083467537393,-407.12600213608994C650.2885028570809,-355.0806799831915,833.0061139943626,-237.84524394776676,995.4460090902413,-195.04134001716247C1157.88590418612,-152.23743608655818,1304.9278734323527,-188.25725639956568,1459.0202052506459,-150.30257855246413C1613.112537068939,-112.34790070536259,1843.170034208441,2.1885094624615995,1920,32.686727065446746L 1920 1080 L 0 1080 Z" fill="url(&quot;#SvgjsLinearGradient1084&quot;)"></path><path d="M0,-420.54474329690987C53.174865583951856,-399.71207631764054,232.43257029624277,-329.29268255320017,319.04919350371114,-295.5487414212938C405.6658167111795,-261.80480028938746,426.3040949902757,-246.47532885334581,519.6997392448101,-218.08109650547186C613.0953834993445,-189.6868641575979,788.4654774291809,-150.24393776895505,879.4230590309174,-125.18334733405003C970.380640632654,-100.12275689914499,986.1865637048409,-86.15357992477676,1065.4452288552297,-67.71755389604164C1144.7038940056186,-49.28152786730651,1260.799913700722,-44.0803377850941,1354.975049933251,-14.567191161639244C1449.15018616578,14.945955461815615,1536.3252212392792,84.64329881961356,1630.496046250404,109.36132584468751C1724.666871261529,134.07935286976146,1871.749341041734,129.6776967981183,1920,133.74097098880443L 1920 1080 L 0 1080 Z" fill="url(&quot;#SvgjsLinearGradient1085&quot;)"></path><path d="M0,-316.10387070405704C47.210025887270746,-307.5476842433041,193.9963213652921,-288.05405926053834,283.2601553236245,-264.7667519395393C372.52398928195686,-241.47944461854024,449.29482963253946,-203.635150142013,535.5830037499942,-176.38002677806278C621.8711778674489,-149.12490341411257,711.7008947930213,-136.64887864391926,800.9892000283527,-101.23601175583791C890.277505263684,-65.82314486775654,971.9101871173812,2.9139147811096535,1071.312835161982,36.09717455042542C1170.715483206583,69.28043431974119,1302.5292224396112,74.82397465208717,1397.4050882959584,97.8635468600567C1492.2809541523056,120.90311906802623,1553.468878349392,148.56727263035677,1640.5680303000656,174.3346077982426C1727.6671822507392,200.1019429661284,1873.428005050011,239.44539952251674,1920,252.46755786737157L 1920 1080 L 0 1080 Z" fill="url(&quot;#SvgjsLinearGradient1086&quot;)"></path><path d="M0,-115.65154106022413C69.4223339484081,-103.46252297085367,288.8891314179396,-82.04049821427299,416.53400369044857,-42.51743252400137C544.1788759629575,-2.9943668337297495,634.7353564190352,69.7145790288464,765.8692336350537,121.4868530814056C897.0031108510722,173.2591271339648,1065.850047306896,230.72966198738268,1203.3372669865594,268.11621179135375C1340.8244866662228,305.50276159532484,1471.3487628774612,312.6245869043045,1590.7925517130348,345.806151905232C1710.2363405486083,378.9877169061595,1865.1320919521725,446.9723601483043,1920,467.20560179691876L 1920 1080 L 0 1080 Z" fill="url(&quot;#SvgjsLinearGradient1087&quot;)"></path><path d="M0,-36.1207076180797C52.22676180876391,-25.1367852567345,214.61286334358232,-0.6594192917140127,313.36057085258346,29.782826549991505C412.1082783615846,60.225072391697026,481.55113282984576,107.61472824549554,592.4862450540068,146.5327674321534C703.4213572781678,185.45080661881127,869.4581596348194,231.03453843365952,978.9712441975495,263.2910616699387C1088.4843287602796,295.5475849062179,1153.3551182010547,304.07279831191255,1249.5647524303874,340.07190684982857C1345.7743866597202,376.0710153877446,1444.4898416452775,442.4606724516099,1556.2290495735463,479.28571289743473C1667.968257501815,516.1107533432596,1859.3715082622577,547.3994100868871,1920,561.0221495247775L 1920 1080 L 0 1080 Z" fill="url(&quot;#SvgjsLinearGradient1088&quot;)"></path><path d="M0,101.95358403392365C61.014099284684896,114.66685623675549,230.53159268881396,129.18351614987824,366.08459570810936,178.23321725091475C501.6375987274048,227.28291835195125,685.4126678780045,344.78613521535436,813.3180181157725,396.25179064014264C941.2233683535404,447.7174460649309,1008.5123919636624,447.9326094069573,1133.516697134717,487.02714979964435C1258.5210023057718,526.1216901923315,1432.263298664554,593.0931987191234,1563.3438491421011,630.8190329962652C1694.4243996196483,668.5448672734069,1860.55730819035,699.6216350514568,1920,713.3821554624951L 1920 1080 L 0 1080 Z" fill="url(&quot;#SvgjsLinearGradient1089&quot;)"></path><path d="M0,238.24832419051597C40.504585807096504,258.86485082898304,150.20752483815107,337.03457913754994,243.02751484257902,361.9474840213185C335.847504847007,386.860388905087,459.30988435485057,367.1694116334704,556.9199400265678,387.72575349312706C654.529995698285,408.2820953527837,739.1389007333858,453.0990437200136,828.6878488728823,485.2855351792582C918.2367970123789,517.4720266385028,1006.8672291161716,549.5642988351085,1094.2136288635472,580.8447022485947C1181.560028610923,612.1251056620808,1266.586867735766,639.8778610663361,1352.766247357136,672.9679556601754C1438.9456269785062,706.0580502540148,1516.750947817957,747.5528274375263,1611.2899065917677,779.3852698116307C1705.8288653655784,811.2177121857351,1868.5483177652945,849.8663865559399,1920,863.9626099048018L 1920 1080 L 0 1080 Z" fill="url(&quot;#SvgjsLinearGradient1090&quot;)"></path></svg>